<?xml version="1.0" encoding="UTF-8"?>
<svg id="Layer_1" xmlns="http://www.w3.org/2000/svg" version="1.1" viewBox="0 0 800 800">
  <!-- Generator: Adobe Illustrator 29.4.0, SVG Export Plug-In . SVG Version: 2.1.0 Build 152)  -->
  <defs>
    <style>
      .st0 {
        fill: #fff;
      }

      .st1 {
        fill: #038442;
      }
    </style>
  </defs>
  <circle class="st1" cx="400" cy="400" r="400"/>
  <path class="st0" d="M377.04,550.1c-6.33,0-11.47,5.13-11.47,11.47v5.13c0,6.33,5.13,11.47,11.47,11.47s11.47-5.13,11.47-11.47v-5.13c0-6.33-5.13-11.47-11.47-11.47Z"/>
  <path class="st0" d="M660.09,462.96l-34.46-28.38c1.73-11.42,2.61-23.02,2.61-34.58s-.88-23.16-2.61-34.58l34.46-28.38c11.01-9.07,13.82-24.61,6.69-36.95l-46.87-81.17c-5.16-8.97-14.8-14.54-25.14-14.54-3.5,0-6.94.63-10.21,1.86l-41.83,15.67c-18.16-14.58-38.25-26.2-59.88-34.62l-7.34-44c-2.33-14.07-14.38-24.29-28.65-24.29h-93.75c-14.27,0-26.31,10.22-28.64,24.28l-7.34,44c-21.63,8.42-41.72,20.04-59.88,34.62l-41.78-15.65c-3.29-1.25-6.74-1.88-10.25-1.88-10.33,0-19.97,5.57-25.14,14.53l-46.87,81.18c-7.13,12.34-4.32,27.88,6.69,36.95l34.46,28.38c-1.73,11.42-2.61,23.02-2.61,34.58s.88,23.16,2.61,34.58l-34.46,28.38c-11.01,9.07-13.82,24.61-6.69,36.95l46.87,81.19c5.18,8.97,14.81,14.54,25.14,14.54,3.52,0,6.97-.64,10.2-1.87l41.83-15.67c18.16,14.58,38.25,26.2,59.88,34.62l7.33,43.99c2.33,14.08,14.38,24.29,28.65,24.29h93.75c14.26,0,26.31-10.21,28.64-24.28l7.34-44c21.63-8.42,41.72-20.04,59.88-34.62l41.79,15.65c3.29,1.25,6.74,1.88,10.25,1.88,10.33,0,19.96-5.57,25.14-14.53l46.87-81.18c7.13-12.34,4.32-27.88-6.69-36.95ZM446.87,658.06h-58.37v-54.25c0-6.33-5.13-11.47-11.47-11.47s-11.47,5.13-11.47,11.47v54.25h-11.99v-125.79c14.93,5.32,30.8,8.1,47.05,8.1h.08c16.3,0,32.19-2.77,47.12-8.1v125.7h0c-.31.05-.63.08-.95.08ZM400.7,517.44h-.06c-64.72-.03-117.38-52.72-117.37-117.44,0-37.66,17.75-72.24,47.37-94.12v83.67c0,4.03,2.11,7.76,5.57,9.84l58.59,35.15c3.63,2.18,8.17,2.18,11.8,0l58.59-35.15c3.45-2.07,5.57-5.81,5.57-9.84v-83.67c29.62,21.88,47.37,56.45,47.37,94.12,0,31.31-12.23,60.79-34.44,83-22.21,22.21-51.68,34.44-83,34.44ZM646.92,488.44l-46.88,81.19c-1.46,2.52-4.52,3.76-7.43,2.66l-48.05-18c-3.9-1.46-8.29-.69-11.46,2.01-18.58,15.84-39.54,28.09-62.34,36.46v-71.11c10.52-6.09,20.32-13.6,29.15-22.43,26.54-26.54,41.16-61.78,41.16-99.22,0-52.95-29.34-100.8-76.57-124.86-3.56-1.81-7.8-1.64-11.2.44-3.4,2.09-5.48,5.79-5.48,9.78v97.7l-47.12,28.27-47.12-28.27v-97.7c0-3.99-2.07-7.69-5.48-9.78-3.4-2.08-7.64-2.25-11.2-.44-47.23,24.06-76.57,71.91-76.57,124.86,0,38.14,14.91,73.71,41.98,100.17,8.63,8.43,18.14,15.62,28.33,21.5v71.61c-23.33-8.38-44.78-20.81-63.74-36.97-2.11-1.8-4.76-2.74-7.44-2.74-1.35,0-2.71.24-4.02.73l-48.11,18.02c-.67.26-1.38.39-2.09.39-2.16,0-4.18-1.18-5.27-3.07l-46.88-81.19c-1.5-2.59-.9-5.86,1.41-7.77l39.57-32.59c3.21-2.65,4.74-6.82,3.99-10.92-2.23-12.21-3.36-24.71-3.36-37.16s1.13-24.96,3.36-37.16c.75-4.09-.78-8.27-3.99-10.92l-39.57-32.59c-2.32-1.91-2.91-5.18-1.41-7.77l46.88-81.19c1.45-2.52,4.51-3.76,7.43-2.66l48.05,18c3.9,1.46,8.29.69,11.46-2.01,19.12-16.3,40.75-28.81,64.31-37.18,3.93-1.4,6.79-4.81,7.47-8.92l8.43-50.56c.49-2.96,3.02-5.1,6.02-5.1h93.75c3,0,5.53,2.15,6.02,5.11l8.43,50.55c.68,4.11,3.55,7.53,7.47,8.92,23.55,8.38,45.19,20.89,64.31,37.18,3.17,2.7,7.56,3.47,11.46,2.01l48.07-18.01c.69-.26,1.41-.39,2.14-.39,2.16,0,4.18,1.17,5.27,3.06l46.88,81.19c1.5,2.59.9,5.86-1.41,7.77l-39.57,32.59c-3.21,2.65-4.74,6.82-3.99,10.92,2.23,12.2,3.36,24.71,3.36,37.16s-1.13,24.96-3.36,37.16c-.75,4.09.78,8.27,3.99,10.92l39.57,32.59c2.32,1.91,2.91,5.18,1.41,7.77Z"/>
</svg>